<svg width="24" height="22" viewBox="0 0 24 22" fill="none" xmlns="http://www.w3.org/2000/svg">
<g clip-path="url(#clip0_202_1063)">
<path d="M12.0001 13.8751C13.4203 13.8751 14.5716 12.7791 14.5716 11.4272C14.5716 10.0753 13.4203 8.97937 12.0001 8.97937C10.58 8.97937 9.42871 10.0753 9.42871 11.4272C9.42871 12.7791 10.58 13.8751 12.0001 13.8751Z" stroke="white" stroke-linecap="round" stroke-linejoin="round"/>
<path d="M22.9201 8.27281C22.5555 7.21024 21.7659 6.32975 20.7244 5.82461C19.6832 5.31946 18.4751 5.23096 17.3658 5.57852C16.9698 5.68606 16.5938 5.85237 16.2515 6.07138C16.3623 5.69157 16.4199 5.29932 16.4229 4.90495C16.4229 3.78081 15.957 2.70272 15.1275 1.90784C14.2981 1.11295 13.1731 0.666382 12.0001 0.666382C10.8271 0.666382 9.70209 1.11295 8.87265 1.90784C8.04319 2.70272 7.57721 3.78081 7.57721 4.90495C7.5802 5.29932 7.63785 5.69157 7.74864 6.07138C7.40743 5.8466 7.03138 5.67473 6.63436 5.56209C6.08618 5.39058 5.50812 5.32421 4.93318 5.36679C4.35825 5.40937 3.79769 5.56006 3.28353 5.81025C2.76934 6.06042 2.31163 6.40523 1.93651 6.82493C1.56138 7.24464 1.27619 7.73104 1.09722 8.25638C0.918245 8.78172 0.848995 9.33569 0.893424 9.88667C0.937851 10.4377 1.09509 10.9748 1.35615 11.4676C1.61722 11.9603 1.977 12.399 2.41495 12.7585C2.85292 13.118 3.36046 13.3913 3.90864 13.5628C4.31016 13.6764 4.72466 13.7426 5.14293 13.76C4.82342 14.0055 4.53568 14.2868 4.28578 14.5978C3.94449 15.0431 3.69885 15.5489 3.56314 16.086C3.42744 16.6229 3.40438 17.1804 3.49528 17.726C3.58618 18.2716 3.78924 18.7946 4.09269 19.2642C4.39613 19.7341 4.7939 20.1415 5.26293 20.4629C6.21074 21.1192 7.39049 21.3908 8.54597 21.2184C9.70147 21.0463 10.7394 20.4441 11.4344 19.5429C11.6755 19.2207 11.8661 18.8665 12.0001 18.4914C12.1394 18.8675 12.3358 19.2217 12.5829 19.5429C13.2779 20.4441 14.3158 21.0463 15.4713 21.2184C16.6268 21.3908 17.8066 21.1192 18.7544 20.4629C19.2234 20.1415 19.6211 19.7341 19.9246 19.2642C20.228 18.7946 20.4311 18.2716 20.522 17.726C20.6128 17.1804 20.5899 16.6229 20.4541 16.086C20.3185 15.5489 20.0728 15.0431 19.7315 14.5978C19.4816 14.2868 19.1939 14.0055 18.8744 13.76C19.2868 13.7413 19.6955 13.6751 20.0915 13.5628C20.6408 13.395 21.1499 13.1248 21.5898 12.7676C22.0297 12.4105 22.3914 11.9735 22.6544 11.4818C22.9172 10.9902 23.0761 10.4535 23.1217 9.90275C23.1673 9.35202 23.0987 8.79808 22.9201 8.27281Z" stroke="white" stroke-linecap="round" stroke-linejoin="round"/>
</g>
<defs>
<clipPath id="clip0_202_1063">
<rect width="24" height="22" fill="white"/>
</clipPath>
</defs>
</svg>
