<svg width="39" height="52" viewBox="0 0 39 52" fill="none" xmlns="http://www.w3.org/2000/svg">
<path fill-rule="evenodd" clip-rule="evenodd" d="M6.33004 0.250881C6.85855 -0.0814023 7.51043 -0.0837609 8.041 0.244691L19.1905 7.14673L30.3398 0.244691C30.8706 -0.0837609 31.5224 -0.0814023 32.051 0.250881C32.5794 0.583165 32.9048 1.19513 32.9048 1.85714V14.8571C32.9048 22.1104 28.107 28.1496 21.7619 29.4535V40.9151C23.6466 38.6018 26.4041 37.1429 29.4762 37.1429H36.3333C37.28 37.1429 38.0476 37.9745 38.0476 39V40.8571C38.0476 47.0113 33.4427 52 27.7619 52H19.1905H10.619C4.93841 52 0.333328 47.0113 0.333328 40.8571V39C0.333328 37.9745 1.10085 37.1429 2.04761 37.1429H8.90476C11.9768 37.1429 14.7343 38.6018 16.619 40.9151V29.4535C10.274 28.1496 5.47618 22.1104 5.47618 14.8571V1.85714C5.47618 1.19513 5.80149 0.583165 6.33004 0.250881Z" fill="black"/>
</svg>
