<svg width="21" height="21" viewBox="0 0 21 21" fill="none" xmlns="http://www.w3.org/2000/svg">
<path d="M4.00738 10.0866L8.28562 11.251C8.82465 11.3977 9.09417 11.471 9.28214 11.659C9.47012 11.847 9.54348 12.1165 9.69018 12.6555L9.69018 12.6555L10.8546 16.9338C11.5101 19.3423 11.8379 20.5466 12.5593 20.5855C13.2806 20.6244 13.7359 19.4623 14.6466 17.1382L19.9626 3.57032C20.6783 1.74366 21.0362 0.830334 20.5735 0.367652C20.1108 -0.0950297 19.1975 0.262823 17.3708 0.978531L3.803 6.2946C1.47887 7.20522 0.316802 7.66054 0.355683 8.3819C0.394565 9.10326 1.59884 9.43103 4.00738 10.0866Z" fill="#060505"/>
</svg>
